# xmcd
#
# Track frame offsets:
#	150
#	13350
#	26544
#	38360
#	53277
#	66325
#	81200
#	88432
#	101675
#	115580
#	129542
#	142500
#	155884
#	170010
#	183627
#	198840
#	212884
#	227387
#	239235
#	253932
#
# Disc length: 3565 seconds
#
# Revision: 2
# Processed by: cddbd v1.5.2PL0 Copyright (c) Steve Scherf et al.
# Submitted via: audiograbber 1.83.01
#
DISCID=170deb14
DTITLE=Louis Armstrong - The Golden Era of Jazz Vol. 7 CD1
DYEAR=1997
DGENRE=Blues
TTITLE0=Louis Armstrong and Ella Fitzgerald - You Won't Be Satisfied (Until You B
TTITLE0=reak My Heart)
TTITLE1=Louis Armstrong and Velma Middleton - No Variety Blues
TTITLE2=Louis Armstrong - Blues for Yesterday
TTITLE3=Louis Armstrong and Jack Teagarden - Please Stop Playing Those Blues Boy
TTITLE4=Louis Armstrong and Jack Teagarden - Before Long
TTITLE5=Louis Armstrong and Jack Teagarden - Lovely Weather We're Having
TTITLE6=Louis Armstrong - When The Saints Go Marching In
TTITLE7=Louis Armstrong - Baby Don't You Cry
TTITLE8=Louis Armstrong and Dorothy Dandridge - Whatcha Say
TTITLE9=Louis Armstrong and Velma Middleton - Joseph 'n his Brudders
TTITLE10=Louis Armstrong - Endie
TTITLE11=Louis Armstrong - The Blues Are Brewin'
TTITLE12=Louis Armstrong - Do You Know What It Means to Miss New Orleans
TTITLE13=Louis Armstrong - I Believe
TTITLE14=Louis Armstrong - Why Doubt My Love
TTITLE15=Louis Armstrong - Rockin' Chair
TTITLE16=Louis Armstrong - Some Day (You'll Be Sorry)
TTITLE17=Louis Armstrong - Boog It
TTITLE18=Louis Armstrong - I've Got the World on a String
TTITLE19=Louis Armstrong - Jack - Armstrong Blues
EXTD=Artist names completed.\nCD issued as "A Star Was Born" (1997)  AND  "The 
EXTD=Golden Era of Jazz Vol. 7 CD1" (2006).
EXTT0=
EXTT1=
EXTT2=
EXTT3=
EXTT4=
EXTT5=
EXTT6=
EXTT7=
EXTT8=
EXTT9=
EXTT10=
EXTT11=
EXTT12=
EXTT13=
EXTT14=
EXTT15=
EXTT16=
EXTT17=
EXTT18=
EXTT19=
PLAYORDER=
